<svg xmlns="http://www.w3.org/2000/svg" viewBox="0 13.529999732971191 356.3500061035156 46.80000305175781" data-asc="1.00537109375" width="146" height="21"><defs/><g fill="#000000"><g transform="translate(0, 0)"><path d="M32.91 50.27L27.76 50.27L24.19 40.14L8.47 40.14L4.91 50.27L0 50.27L13.23 13.92L19.68 13.92L32.91 50.27M22.71 35.99L16.33 18.14L9.94 35.99L22.71 35.99ZM62.06 36.30Q62.06 39.62 61.11 42.37Q60.16 45.12 58.42 47.02Q56.81 48.83 54.63 49.82Q52.44 50.81 50 50.81Q47.88 50.81 46.15 50.34Q44.43 49.88 42.65 48.90L42.65 60.33L38.06 60.33L38.06 23.00L42.65 23.00L42.65 25.85Q44.48 24.32 46.77 23.28Q49.05 22.24 51.64 22.24Q56.57 22.24 59.31 25.96Q62.06 29.69 62.06 36.30M57.32 36.43Q57.32 31.49 55.64 29.05Q53.96 26.61 50.46 26.61Q48.49 26.61 46.48 27.47Q44.48 28.32 42.65 29.71L42.65 45.17Q44.60 46.04 46.01 46.36Q47.41 46.68 49.19 46.68Q53.03 46.68 55.18 44.09Q57.32 41.50 57.32 36.43ZM92.82 50.27L87.04 50.27L79.30 39.79L71.51 50.27L66.16 50.27L76.81 36.67L66.26 23.00L72.05 23.00L79.74 33.30L87.45 23.00L92.82 23.00L82.10 36.43L92.82 50.27ZM121.78 50.27L117.24 50.27L117.24 29.79L102.95 50.27L98.80 50.27L98.80 23.00L103.34 23.00L103.34 43.19L117.48 23.00L121.78 23.00L121.78 50.27ZM153.32 42.02Q153.32 43.99 152.53 45.53Q151.73 47.07 150.34 48.10Q148.78 49.24 146.94 49.76Q145.09 50.27 142.09 50.27L130.81 50.27L130.81 23.00L141.36 23.00Q144.41 23.00 145.96 23.21Q147.51 23.41 148.88 24.12Q150.42 24.93 151.14 26.22Q151.86 27.51 151.86 29.27Q151.86 31.30 150.71 32.79Q149.56 34.28 147.75 35.11L147.75 35.35Q150.17 35.94 151.75 37.61Q153.32 39.28 153.32 42.02M147.14 29.98Q147.14 29.10 146.77 28.39Q146.39 27.69 145.61 27.29Q144.58 26.78 143.30 26.72Q142.02 26.66 140.14 26.66L135.35 26.66L135.35 34.13L141.09 34.13Q142.90 34.13 143.76 34.00Q144.63 33.86 145.51 33.33Q146.44 32.74 146.79 31.95Q147.14 31.15 147.14 29.98M148.58 42.04Q148.58 40.70 148.14 39.86Q147.71 39.01 146.22 38.31Q145.29 37.87 144.21 37.78Q143.14 37.70 141.24 37.70L135.35 37.70L135.35 46.61L139.70 46.61Q142.43 46.61 143.91 46.42Q145.39 46.24 146.46 45.63Q147.53 45.02 148.06 44.14Q148.58 43.26 148.58 42.04ZM211.99 31.84Q211.99 35.25 210.90 37.90Q209.81 40.55 207.89 42.33Q205.81 44.26 202.83 45.40Q199.85 46.53 196.48 46.61L196.48 50.66L191.67 50.66L191.67 46.61Q188.40 46.53 185.40 45.43Q182.40 44.34 180.27 42.33Q178.34 40.53 177.26 37.89Q176.17 35.25 176.17 31.84Q176.17 28.52 177.22 26.03Q178.27 23.54 180.13 21.68Q182.10 19.70 185.07 18.55Q188.04 17.41 191.67 17.31L191.67 13.53L196.48 13.53L196.48 17.31Q200.10 17.38 203.10 18.58Q206.10 19.78 208.03 21.68Q209.86 23.46 210.93 26.00Q211.99 28.54 211.99 31.84M206.96 31.64Q206.96 29.22 206.18 27.20Q205.40 25.17 203.96 23.78Q202.54 22.41 200.81 21.78Q199.07 21.14 196.48 21.09L196.48 42.82Q198.78 42.77 200.66 42.08Q202.54 41.38 203.76 40.23Q205.35 38.77 206.15 36.65Q206.96 34.52 206.96 31.64M191.67 42.82L191.67 21.09Q189.09 21.12 187.35 21.78Q185.62 22.44 184.20 23.78Q182.79 25.12 181.99 27.20Q181.20 29.27 181.20 31.64Q181.20 34.38 182.02 36.60Q182.84 38.82 184.40 40.23Q185.60 41.33 187.49 42.07Q189.38 42.80 191.67 42.82ZM240.26 50.27L235.69 50.27L235.69 47.36Q235.08 47.78 234.05 48.52Q233.01 49.27 232.03 49.71Q230.88 50.27 229.39 50.65Q227.91 51.03 225.90 51.03Q222.22 51.03 219.65 48.58Q217.09 46.14 217.09 42.36Q217.09 39.26 218.42 37.34Q219.75 35.42 222.22 34.33Q224.71 33.23 228.20 32.84Q231.69 32.45 235.69 32.25L235.69 31.54Q235.69 29.98 235.14 28.96Q234.59 27.93 233.57 27.34Q232.59 26.78 231.23 26.59Q229.86 26.39 228.37 26.39Q226.56 26.39 224.34 26.87Q222.12 27.34 219.75 28.25L219.51 28.25L219.51 23.58Q220.85 23.22 223.39 22.78Q225.93 22.34 228.39 22.34Q231.27 22.34 233.41 22.81Q235.55 23.29 237.11 24.44Q238.65 25.56 239.45 27.34Q240.26 29.13 240.26 31.76L240.26 50.27M235.69 43.55L235.69 35.96Q233.59 36.08 230.75 36.33Q227.91 36.57 226.25 37.04Q224.27 37.60 223.05 38.78Q221.83 39.97 221.83 42.04Q221.83 44.38 223.24 45.57Q224.66 46.75 227.56 46.75Q229.98 46.75 231.98 45.81Q233.98 44.87 235.69 43.55ZM273.71 50.27L267.70 50.27L256.37 37.77L253.88 37.77L253.88 50.27L249.29 50.27L249.29 23.00L253.88 23.00L253.88 34.77Q256.15 34.77 257.54 33.95Q258.94 33.13 259.91 31.32Q260.25 30.66 260.58 29.92Q260.91 29.17 261.23 28.49Q262.50 25.73 264.40 24.37Q266.31 23.00 269.87 23.00L271.97 23.00L271.97 26.95L269.95 26.95Q268.02 26.95 266.93 27.77Q265.84 28.59 264.97 30.64Q263.99 32.93 262.90 34.07Q261.82 35.21 260.60 35.79L273.71 50.27ZM298.73 27.03L288.87 27.03L288.87 50.27L284.28 50.27L284.28 27.03L274.41 27.03L274.41 23.00L298.73 23.00L298.73 27.03ZM326.73 36.65Q326.73 43.31 323.32 47.17Q319.90 51.03 314.16 51.03Q308.37 51.03 304.97 47.17Q301.56 43.31 301.56 36.65Q301.56 29.98 304.97 26.11Q308.37 22.24 314.16 22.24Q319.90 22.24 323.32 26.11Q326.73 29.98 326.73 36.65M322.00 36.65Q322.00 31.35 319.92 28.77Q317.85 26.20 314.16 26.20Q310.42 26.20 308.36 28.77Q306.30 31.35 306.30 36.65Q306.30 41.77 308.37 44.42Q310.45 47.07 314.16 47.07Q317.82 47.07 319.91 44.45Q322.00 41.82 322.00 36.65ZM356.35 42.02Q356.35 43.99 355.55 45.53Q354.76 47.07 353.37 48.10Q351.81 49.24 349.96 49.76Q348.12 50.27 345.12 50.27L333.84 50.27L333.84 23.00L344.38 23.00Q347.44 23.00 348.99 23.21Q350.54 23.41 351.90 24.12Q353.44 24.93 354.16 26.22Q354.88 27.51 354.88 29.27Q354.88 31.30 353.74 32.79Q352.59 34.28 350.78 35.11L350.78 35.35Q353.20 35.94 354.77 37.61Q356.35 39.28 356.35 42.02M350.17 29.98Q350.17 29.10 349.79 28.39Q349.41 27.69 348.63 27.29Q347.61 26.78 346.33 26.72Q345.04 26.66 343.16 26.66L338.38 26.66L338.38 34.13L344.12 34.13Q345.92 34.13 346.79 34.00Q347.66 33.86 348.54 33.33Q349.46 32.74 349.82 31.95Q350.17 31.15 350.17 29.98M351.61 42.04Q351.61 40.70 351.17 39.86Q350.73 39.01 349.24 38.31Q348.32 37.87 347.24 37.78Q346.17 37.70 344.26 37.70L338.38 37.70L338.38 46.61L342.72 46.61Q345.46 46.61 346.94 46.42Q348.41 46.24 349.49 45.63Q350.56 45.02 351.09 44.14Q351.61 43.26 351.61 42.04Z"/></g></g></svg>